<svg xmlns="http://www.w3.org/2000/svg" viewBox="0 0 1400 1050" font-family="'PingFang SC', 'Microsoft YaHei', 'Helvetica Neue', Arial, sans-serif">
  <defs>
    <linearGradient id="bgGrad" x1="0%" y1="0%" x2="100%" y2="100%">
      <stop offset="0%" style="stop-color:#f8fafc;stop-opacity:1" />
      <stop offset="100%" style="stop-color:#e2e8f0;stop-opacity:1" />
    </linearGradient>
    <linearGradient id="headerGrad" x1="0%" y1="0%" x2="0%" y2="100%">
      <stop offset="0%" style="stop-color:#1e40af;stop-opacity:1" />
      <stop offset="100%" style="stop-color:#1e3a8a;stop-opacity:1" />
    </linearGradient>
    <linearGradient id="coreGrad" x1="0%" y1="0%" x2="0%" y2="100%">
      <stop offset="0%" style="stop-color:#3b82f6;stop-opacity:1" />
      <stop offset="100%" style="stop-color:#2563eb;stop-opacity:1" />
    </linearGradient>
    <linearGradient id="aiGrad" x1="0%" y1="0%" x2="0%" y2="100%">
      <stop offset="0%" style="stop-color:#8b5cf6;stop-opacity:1" />
      <stop offset="100%" style="stop-color:#7c3aed;stop-opacity:1" />
    </linearGradient>
    <linearGradient id="csGrad" x1="0%" y1="0%" x2="0%" y2="100%">
      <stop offset="0%" style="stop-color:#10b981;stop-opacity:1" />
      <stop offset="100%" style="stop-color:#059669;stop-opacity:1" />
    </linearGradient>
    <linearGradient id="dataGrad" x1="0%" y1="0%" x2="0%" y2="100%">
      <stop offset="0%" style="stop-color:#f59e0b;stop-opacity:1" />
      <stop offset="100%" style="stop-color:#d97706;stop-opacity:1" />
    </linearGradient>
    <linearGradient id="opsGrad" x1="0%" y1="0%" x2="0%" y2="100%">
      <stop offset="0%" style="stop-color:#64748b;stop-opacity:1" />
      <stop offset="100%" style="stop-color:#475569;stop-opacity:1" />
    </linearGradient>
    <linearGradient id="platformGrad" x1="0%" y1="0%" x2="0%" y2="100%">
      <stop offset="0%" style="stop-color:#ef4444;stop-opacity:1" />
      <stop offset="100%" style="stop-color:#dc2626;stop-opacity:1" />
    </linearGradient>
    <filter id="shadow" x="-5%" y="-5%" width="110%" height="110%">
      <feDropShadow dx="0" dy="2" stdDeviation="3" flood-opacity="0.15"/>
    </filter>
    <filter id="cardShadow" x="-3%" y="-3%" width="106%" height="106%">
      <feDropShadow dx="0" dy="1" stdDeviation="2" flood-opacity="0.1"/>
    </filter>
    <marker id="arrowhead" markerWidth="10" markerHeight="7" refX="10" refY="3.5" orient="auto">
      <polygon points="0 0, 10 3.5, 0 7" fill="#94a3b8"/>
    </marker>
  </defs>

  <!-- Background -->
  <rect width="1400" height="1050" fill="url(#bgGrad)" rx="12"/>
  
  <!-- Title -->
  <text x="700" y="50" text-anchor="middle" font-size="28" font-weight="700" fill="#1e293b">AllMall Operation Suite 业务架构图</text>
  <text x="700" y="75" text-anchor="middle" font-size="14" fill="#64748b">AI 驱动的全自动跨平台电商运营中台 · 三档订阅制商业化</text>

  <!-- Header: 用户角色 -->
  <rect x="50" y="100" width="1300" height="80" rx="10" fill="white" filter="url(#shadow)"/>
  <rect x="50" y="100" width="150" height="80" rx="10" fill="url(#headerGrad)"/>
  <text x="125" y="135" text-anchor="middle" font-size="16" font-weight="600" fill="white">用户角色</text>
  <text x="125" y="160" text-anchor="middle" font-size="12" fill="#dbeafe">User Roles</text>
  
  <rect x="230" y="115" width="280" height="50" rx="6" fill="#eff6ff" stroke="#3b82f6" stroke-width="1.5"/>
  <text x="370" y="138" text-anchor="middle" font-size="14" font-weight="600" fill="#1e40af">中小商家</text>
  <text x="370" y="155" text-anchor="middle" font-size="11" fill="#64748b">单店经营 · 1-2人运营 · 商家版 ¥299/月</text>
  
  <rect x="540" y="115" width="280" height="50" rx="6" fill="#eff6ff" stroke="#3b82f6" stroke-width="1.5"/>
  <text x="680" y="138" text-anchor="middle" font-size="14" font-weight="600" fill="#1e40af">品牌/工厂</text>
  <text x="680" y="155" text-anchor="middle" font-size="11" fill="#64748b">多平台多店 · 5-20人团队 · 高级商家版 ¥799/月</text>
  
  <rect x="850" y="115" width="280" height="50" rx="6" fill="#eff6ff" stroke="#3b82f6" stroke-width="1.5"/>
  <text x="990" y="138" text-anchor="middle" font-size="14" font-weight="600" fill="#1e40af">代运营公司</text>
  <text x="990" y="155" text-anchor="middle" font-size="11" fill="#64748b">批量管店 · 数十人团队 · 专业版 ¥1999/月</text>
  
  <rect x="1160" y="115" width="170" height="50" rx="6" fill="#eff6ff" stroke="#3b82f6" stroke-width="1.5"/>
  <text x="1245" y="138" text-anchor="middle" font-size="14" font-weight="600" fill="#1e40af">平台超管</text>
  <text x="1245" y="155" text-anchor="middle" font-size="11" fill="#64748b">租户管理 · 套餐配置</text>

  <!-- Arrow -->
  <line x1="700" y1="180" x2="700" y2="210" stroke="#94a3b8" stroke-width="2" marker-end="url(#arrowhead)"/>

  <!-- Core Business Layer -->
  <rect x="50" y="210" width="1300" height="200" rx="10" fill="white" filter="url(#shadow)"/>
  <rect x="50" y="210" width="150" height="200" rx="10" fill="url(#coreGrad)"/>
  <text x="125" y="250" text-anchor="middle" font-size="16" font-weight="600" fill="white">核心业务</text>
  <text x="125" y="275" text-anchor="middle" font-size="12" fill="#dbeafe">Core Business</text>
  
  <rect x="230" y="225" width="180" height="65" rx="6" fill="#eff6ff" stroke="#3b82f6" stroke-width="1.5"/>
  <text x="320" y="250" text-anchor="middle" font-size="14" font-weight="600" fill="#1e40af">商品管理</text>
  <text x="320" y="270" text-anchor="middle" font-size="11" fill="#64748b">选品/定价/上下架/SKU</text>
  
  <rect x="430" y="225" width="180" height="65" rx="6" fill="#eff6ff" stroke="#3b82f6" stroke-width="1.5"/>
  <text x="520" y="250" text-anchor="middle" font-size="14" font-weight="600" fill="#1e40af">订单处理</text>
  <text x="520" y="270" text-anchor="middle" font-size="11" fill="#64748b">同步/异常拦截/售后</text>
  
  <rect x="630" y="225" width="180" height="65" rx="6" fill="#eff6ff" stroke="#3b82f6" stroke-width="1.5"/>
  <text x="720" y="250" text-anchor="middle" font-size="14" font-weight="600" fill="#1e40af">客户运营</text>
  <text x="720" y="270" text-anchor="middle" font-size="11" fill="#64748b">RFM分层/沉睡唤醒</text>
  
  <rect x="830" y="225" width="180" height="65" rx="6" fill="#eff6ff" stroke="#3b82f6" stroke-width="1.5"/>
  <text x="920" y="250" text-anchor="middle" font-size="14" font-weight="600" fill="#1e40af">广告投放</text>
  <text x="920" y="270" text-anchor="middle" font-size="11" fill="#64748b">计划管理/效果追踪</text>
  
  <rect x="1030" y="225" width="180" height="65" rx="6" fill="#eff6ff" stroke="#3b82f6" stroke-width="1.5"/>
  <text x="1120" y="250" text-anchor="middle" font-size="14" font-weight="600" fill="#1e40af">竞品监控</text>
  <text x="1120" y="270" text-anchor="middle" font-size="11" fill="#64748b">价格监控/快照分析</text>
  
  <rect x="1230" y="225" width="100" height="65" rx="6" fill="#eff6ff" stroke="#3b82f6" stroke-width="1.5"/>
  <text x="1280" y="250" text-anchor="middle" font-size="14" font-weight="600" fill="#1e40af">活动</text>
  <text x="1280" y="270" text-anchor="middle" font-size="11" fill="#64748b">提报/配置</text>

  <rect x="230" y="305" width="180" height="65" rx="6" fill="#eff6ff" stroke="#3b82f6" stroke-width="1.5"/>
  <text x="320" y="330" text-anchor="middle" font-size="14" font-weight="600" fill="#1e40af">内容工厂</text>
  <text x="320" y="350" text-anchor="middle" font-size="11" fill="#64748b">标题/文案/模板管理</text>
  
  <rect x="430" y="305" width="180" height="65" rx="6" fill="#eff6ff" stroke="#3b82f6" stroke-width="1.5"/>
  <text x="520" y="330" text-anchor="middle" font-size="14" font-weight="600" fill="#1e40af">规则引擎</text>
  <text x="520" y="350" text-anchor="middle" font-size="11" fill="#64748b">条件组/动作链/冷却</text>
  
  <rect x="630" y="305" width="180" height="65" rx="6" fill="#eff6ff" stroke="#3b82f6" stroke-width="1.5"/>
  <text x="720" y="330" text-anchor="middle" font-size="14" font-weight="600" fill="#1e40af">数据复盘</text>
  <text x="720" y="350" text-anchor="middle" font-size="11" fill="#64748b">日/周/月报自动生成</text>
  
  <rect x="830" y="305" width="180" height="65" rx="6" fill="#eff6ff" stroke="#3b82f6" stroke-width="1.5"/>
  <text x="920" y="330" text-anchor="middle" font-size="14" font-weight="600" fill="#1e40af">财务管理</text>
  <text x="920" y="350" text-anchor="middle" font-size="11" fill="#64748b">核算/备用金/对账</text>
  
  <rect x="1030" y="305" width="180" height="65" rx="6" fill="#eff6ff" stroke="#3b82f6" stroke-width="1.5"/>
  <text x="1120" y="330" text-anchor="middle" font-size="14" font-weight="600" fill="#1e40af">任务 SOP</text>
  <text x="1120" y="350" text-anchor="middle" font-size="11" fill="#64748b">看板/早会要点/分配</text>
  
  <rect x="1230" y="305" width="100" height="65" rx="6" fill="#eff6ff" stroke="#3b82f6" stroke-width="1.5"/>
  <text x="1280" y="330" text-anchor="middle" font-size="14" font-weight="600" fill="#1e40af">预警</text>
  <text x="1280" y="350" text-anchor="middle" font-size="11" fill="#64748b">异常/合规</text>

  <!-- Arrow -->
  <line x1="700" y1="410" x2="700" y2="440" stroke="#94a3b8" stroke-width="2" marker-end="url(#arrowhead)"/>

  <!-- AI + CS Layer -->
  <rect x="50" y="440" width="650" height="180" rx="10" fill="white" filter="url(#shadow)"/>
  <rect x="50" y="440" width="150" height="180" rx="10" fill="url(#aiGrad)"/>
  <text x="125" y="480" text-anchor="middle" font-size="16" font-weight="600" fill="white">AI 能力</text>
  <text x="125" y="505" text-anchor="middle" font-size="12" fill="#ede9fe">AI Capabilities</text>
  
  <rect x="230" y="455" width="200" height="65" rx="6" fill="#f5f3ff" stroke="#8b5cf6" stroke-width="1.5"/>
  <text x="330" y="480" text-anchor="middle" font-size="14" font-weight="600" fill="#5b21b6">AI 拍照上架</text>
  <text x="330" y="500" text-anchor="middle" font-size="11" fill="#64748b">视觉识别→竞品分析→文案→上架</text>
  
  <rect x="450" y="455" width="220" height="65" rx="6" fill="#f5f3ff" stroke="#8b5cf6" stroke-width="1.5"/>
  <text x="560" y="480" text-anchor="middle" font-size="14" font-weight="600" fill="#5b21b6">AI 内容生成</text>
  <text x="560" y="500" text-anchor="middle" font-size="11" fill="#64748b">主图/详情图/短视频/文案生成</text>
  
  <rect x="230" y="535" width="200" height="65" rx="6" fill="#f5f3ff" stroke="#8b5cf6" stroke-width="1.5"/>
  <text x="330" y="560" text-anchor="middle" font-size="14" font-weight="600" fill="#5b21b6">合规检测</text>
  <text x="330" y="580" text-anchor="middle" font-size="11" fill="#64748b">极限词/盗图/虚假交易检测</text>
  
  <rect x="450" y="535" width="220" height="65" rx="6" fill="#f5f3ff" stroke="#8b5cf6" stroke-width="1.5"/>
  <text x="560" y="560" text-anchor="middle" font-size="14" font-weight="600" fill="#5b21b6">智能分析</text>
  <text x="560" y="580" text-anchor="middle" font-size="11" fill="#64748b">定价建议/关键词优化/ROI预测</text>

  <!-- CS Layer -->
  <rect x="720" y="440" width="630" height="180" rx="10" fill="white" filter="url(#shadow)"/>
  <rect x="720" y="440" width="150" height="180" rx="10" fill="url(#csGrad)"/>
  <text x="795" y="480" text-anchor="middle" font-size="16" font-weight="600" fill="white">智能客服</text>
  <text x="795" y="505" text-anchor="middle" font-size="12" fill="#d1fae5">Intelligent CS</text>
  
  <rect x="900" y="455" width="200" height="65" rx="6" fill="#ecfdf5" stroke="#10b981" stroke-width="1.5"/>
  <text x="1000" y="480" text-anchor="middle" font-size="14" font-weight="600" fill="#065f46">全平台消息接入</text>
  <text x="1000" y="500" text-anchor="middle" font-size="11" fill="#64748b">淘宝/拼多多/抖音/京东</text>
  
  <rect x="1120" y="455" width="200" height="65" rx="6" fill="#ecfdf5" stroke="#10b981" stroke-width="1.5"/>
  <text x="1220" y="480" text-anchor="middle" font-size="14" font-weight="600" fill="#065f46">AI 自动回复</text>
  <text x="1220" y="500" text-anchor="middle" font-size="11" fill="#64748b">RAG 知识库检索 + LLM 生成</text>
  
  <rect x="900" y="535" width="200" height="65" rx="6" fill="#ecfdf5" stroke="#10b981" stroke-width="1.5"/>
  <text x="1000" y="560" text-anchor="middle" font-size="14" font-weight="600" fill="#065f46">知识库管理</text>
  <text x="1000" y="580" text-anchor="middle" font-size="11" fill="#64748b">文档上传/分段/向量化/检索</text>
  
  <rect x="1120" y="535" width="200" height="65" rx="6" fill="#ecfdf5" stroke="#10b981" stroke-width="1.5"/>
  <text x="1220" y="560" text-anchor="middle" font-size="14" font-weight="600" fill="#065f46">客服工作台</text>
  <text x="1220" y="580" text-anchor="middle" font-size="11" fill="#64748b">会话管理/快捷回复/满意度</text>

  <!-- Arrow -->
  <line x1="700" y1="620" x2="700" y2="650" stroke="#94a3b8" stroke-width="2" marker-end="url(#arrowhead)"/>

  <!-- Data & Analytics Layer -->
  <rect x="50" y="650" width="650" height="150" rx="10" fill="white" filter="url(#shadow)"/>
  <rect x="50" y="650" width="150" height="150" rx="10" fill="url(#dataGrad)"/>
  <text x="125" y="690" text-anchor="middle" font-size="16" font-weight="600" fill="white">数据与洞察</text>
  <text x="125" y="715" text-anchor="middle" font-size="12" fill="#fef3c7">Data &amp; Insights</text>
  
  <rect x="230" y="665" width="200" height="55" rx="6" fill="#fffbeb" stroke="#f59e0b" stroke-width="1.5"/>
  <text x="330" y="690" text-anchor="middle" font-size="14" font-weight="600" fill="#92400e">多平台数据聚合</text>
  <text x="330" y="710" text-anchor="middle" font-size="11" fill="#64748b">商品/订单/客户/广告统一视图</text>
  
  <rect x="450" y="665" width="220" height="55" rx="6" fill="#fffbeb" stroke="#f59e0b" stroke-width="1.5"/>
  <text x="560" y="690" text-anchor="middle" font-size="14" font-weight="600" fill="#92400e">趋势分析与预测</text>
  <text x="560" y="710" text-anchor="middle" font-size="11" fill="#64748b">销售趋势/爆款预测/库存预警</text>
  
  <rect x="230" y="735" width="200" height="55" rx="6" fill="#fffbeb" stroke="#f59e0b" stroke-width="1.5"/>
  <text x="330" y="760" text-anchor="middle" font-size="14" font-weight="600" fill="#92400e">自动化复盘报告</text>
  <text x="330" y="780" text-anchor="middle" font-size="11" fill="#64748b">日/周/月报自动生成推送</text>
  
  <rect x="450" y="735" width="220" height="55" rx="6" fill="#fffbeb" stroke="#f59e0b" stroke-width="1.5"/>
  <text x="560" y="760" text-anchor="middle" font-size="14" font-weight="600" fill="#92400e">智能优化建议</text>
  <text x="560" y="780" text-anchor="middle" font-size="11" fill="#64748b">ROI优化/定价调整/素材替换</text>

  <!-- Operations Layer -->
  <rect x="720" y="650" width="630" height="150" rx="10" fill="white" filter="url(#shadow)"/>
  <rect x="720" y="650" width="150" height="150" rx="10" fill="url(#opsGrad)"/>
  <text x="795" y="690" text-anchor="middle" font-size="16" font-weight="600" fill="white">运营支撑</text>
  <text x="795" y="715" text-anchor="middle" font-size="12" fill="#e2e8f0">Operations</text>
  
  <rect x="900" y="665" width="200" height="55" rx="6" fill="#f1f5f9" stroke="#64748b" stroke-width="1.5"/>
  <text x="1000" y="690" text-anchor="middle" font-size="14" font-weight="600" fill="#334155">订阅计费体系</text>
  <text x="1000" y="710" text-anchor="middle" font-size="11" fill="#64748b">三档套餐/自动续费/用量管控</text>
  
  <rect x="1120" y="665" width="200" height="55" rx="6" fill="#f1f5f9" stroke="#64748b" stroke-width="1.5"/>
  <text x="1220" y="690" text-anchor="middle" font-size="14" font-weight="600" fill="#334155">OAuth 授权管理</text>
  <text x="1220" y="710" text-anchor="middle" font-size="11" fill="#64748b">一键授权/Token刷新/数据同步</text>
  
  <rect x="900" y="735" width="200" height="55" rx="6" fill="#f1f5f9" stroke="#64748b" stroke-width="1.5"/>
  <text x="1000" y="760" text-anchor="middle" font-size="14" font-weight="600" fill="#334155">多租户团队协作</text>
  <text x="1000" y="780" text-anchor="middle" font-size="11" fill="#64748b">角色权限/数据隔离/客户分组</text>
  
  <rect x="1120" y="735" width="200" height="55" rx="6" fill="#f1f5f9" stroke="#64748b" stroke-width="1.5"/>
  <text x="1220" y="760" text-anchor="middle" font-size="14" font-weight="600" fill="#334155">风控合规体系</text>
  <text x="1220" y="780" text-anchor="middle" font-size="11" fill="#64748b">极限词/盗图/虚假交易监控</text>

  <!-- Arrow -->
  <line x1="700" y1="800" x2="700" y2="830" stroke="#94a3b8" stroke-width="2" marker-end="url(#arrowhead)"/>

  <!-- Platform Layer -->
  <rect x="50" y="830" width="1300" height="120" rx="10" fill="white" filter="url(#shadow)"/>
  <rect x="50" y="830" width="150" height="120" rx="10" fill="url(#platformGrad)"/>
  <text x="125" y="870" text-anchor="middle" font-size="16" font-weight="600" fill="white">电商平台</text>
  <text x="125" y="895" text-anchor="middle" font-size="12" fill="#fecaca">Platforms</text>
  
  <rect x="230" y="845" width="260" height="90" rx="6" fill="#fef2f2" stroke="#ef4444" stroke-width="1.5"/>
  <text x="360" y="875" text-anchor="middle" font-size="16" font-weight="600" fill="#991b1b">淘宝</text>
  <text x="360" y="895" text-anchor="middle" font-size="11" fill="#64748b">TOP API · 千牛客服 · 直通车/引力魔方</text>
  <text x="360" y="915" text-anchor="middle" font-size="11" fill="#64748b">OAuth 2.0 · Token 最长 1 年</text>
  
  <rect x="510" y="845" width="260" height="90" rx="6" fill="#fef2f2" stroke="#ef4444" stroke-width="1.5"/>
  <text x="640" y="875" text-anchor="middle" font-size="16" font-weight="600" fill="#991b1b">拼多多</text>
  <text x="640" y="895" text-anchor="middle" font-size="11" fill="#64748b">开放平台 API · 多多客服 · 搜索/场景推广</text>
  <text x="640" y="915" text-anchor="middle" font-size="11" fill="#64748b">OAuth 2.0 · Refresh Token 支持</text>
  
  <rect x="790" y="845" width="260" height="90" rx="6" fill="#fef2f2" stroke="#ef4444" stroke-width="1.5"/>
  <text x="920" y="875" text-anchor="middle" font-size="16" font-weight="600" fill="#991b1b">抖音</text>
  <text x="920" y="895" text-anchor="middle" font-size="11" fill="#64748b">抖店 API · 飞鸽 IM · 巨量千川投放</text>
  <text x="920" y="915" text-anchor="middle" font-size="11" fill="#64748b">OAuth 2.0 · WebSocket 实时推送</text>
  
  <rect x="1070" y="845" width="260" height="90" rx="6" fill="#fef2f2" stroke="#ef4444" stroke-width="1.5"/>
  <text x="1200" y="875" text-anchor="middle" font-size="16" font-weight="600" fill="#991b1b">京东</text>
  <text x="1200" y="895" text-anchor="middle" font-size="11" fill="#64748b">JOS API · 咚咚客服 · 快车/海投/京准通</text>
  <text x="1200" y="915" text-anchor="middle" font-size="11" fill="#64748b">OAuth 2.0 · Token 有效期短需频繁刷新</text>

  <!-- Footer -->
  <text x="700" y="980" text-anchor="middle" font-size="12" fill="#94a3b8">© 2026 AllMall Operation Suite · 业务架构图</text>
</svg>