<svg xmlns="http://www.w3.org/2000/svg" viewBox="0 0 1400 1100" font-family="'PingFang SC', 'Microsoft YaHei', 'Helvetica Neue', Arial, sans-serif">
  <defs>
    <linearGradient id="bgGrad" x1="0%" y1="0%" x2="100%" y2="100%">
      <stop offset="0%" style="stop-color:#f8fafc;stop-opacity:1" />
      <stop offset="100%" style="stop-color:#e2e8f0;stop-opacity:1" />
    </linearGradient>
    <linearGradient id="layerGrad1" x1="0%" y1="0%" x2="0%" y2="100%">
      <stop offset="0%" style="stop-color:#3b82f6;stop-opacity:1" />
      <stop offset="100%" style="stop-color:#2563eb;stop-opacity:1" />
    </linearGradient>
    <linearGradient id="layerGrad2" x1="0%" y1="0%" x2="0%" y2="100%">
      <stop offset="0%" style="stop-color:#10b981;stop-opacity:1" />
      <stop offset="100%" style="stop-color:#059669;stop-opacity:1" />
    </linearGradient>
    <linearGradient id="layerGrad3" x1="0%" y1="0%" x2="0%" y2="100%">
      <stop offset="0%" style="stop-color:#8b5cf6;stop-opacity:1" />
      <stop offset="100%" style="stop-color:#7c3aed;stop-opacity:1" />
    </linearGradient>
    <linearGradient id="layerGrad4" x1="0%" y1="0%" x2="0%" y2="100%">
      <stop offset="0%" style="stop-color:#f59e0b;stop-opacity:1" />
      <stop offset="100%" style="stop-color:#d97706;stop-opacity:1" />
    </linearGradient>
    <linearGradient id="layerGrad5" x1="0%" y1="0%" x2="0%" y2="100%">
      <stop offset="0%" style="stop-color:#64748b;stop-opacity:1" />
      <stop offset="100%" style="stop-color:#475569;stop-opacity:1" />
    </linearGradient>
    <filter id="shadow" x="-5%" y="-5%" width="110%" height="110%">
      <feDropShadow dx="0" dy="2" stdDeviation="3" flood-opacity="0.15"/>
    </filter>
    <filter id="cardShadow" x="-3%" y="-3%" width="106%" height="106%">
      <feDropShadow dx="0" dy="1" stdDeviation="2" flood-opacity="0.1"/>
    </filter>
    <marker id="arrowhead" markerWidth="10" markerHeight="7" refX="10" refY="3.5" orient="auto">
      <polygon points="0 0, 10 3.5, 0 7" fill="#94a3b8"/>
    </marker>
  </defs>

  <!-- Background -->
  <rect width="1400" height="1100" fill="url(#bgGrad)" rx="12"/>
  
  <!-- Title -->
  <text x="700" y="50" text-anchor="middle" font-size="28" font-weight="700" fill="#1e293b">AllMall Operation Suite 系统架构图</text>
  <text x="700" y="75" text-anchor="middle" font-size="14" fill="#64748b">Python 3.12 + Flask 3.x + SQLAlchemy + Celery + AI/LLM + RAG</text>

  <!-- Layer 1: 表示层 (y=100, h=160, center=180) -->
  <rect x="50" y="100" width="1300" height="160" rx="10" fill="white" filter="url(#shadow)"/>
  <rect x="50" y="100" width="180" height="160" rx="10" fill="url(#layerGrad1)"/>
  <text x="140" y="172" text-anchor="middle" font-size="16" font-weight="600" fill="white">表示层</text>
  <text x="140" y="195" text-anchor="middle" font-size="12" fill="#dbeafe">Presentation</text>
  
  <rect x="260" y="120" width="160" height="50" rx="6" fill="#eff6ff" stroke="#3b82f6" stroke-width="1.5"/>
  <text x="340" y="150" text-anchor="middle" font-size="13" fill="#1e40af">Jinja2 模板引擎</text>
  
  <rect x="440" y="120" width="160" height="50" rx="6" fill="#eff6ff" stroke="#3b82f6" stroke-width="1.5"/>
  <text x="520" y="150" text-anchor="middle" font-size="13" fill="#1e40af">Bootstrap 5 UI</text>
  
  <rect x="620" y="120" width="160" height="50" rx="6" fill="#eff6ff" stroke="#3b82f6" stroke-width="1.5"/>
  <text x="700" y="150" text-anchor="middle" font-size="13" fill="#1e40af">Chart.js 图表</text>
  
  <rect x="800" y="120" width="160" height="50" rx="6" fill="#eff6ff" stroke="#3b82f6" stroke-width="1.5"/>
  <text x="880" y="150" text-anchor="middle" font-size="13" fill="#1e40af">HTMX 局部更新</text>
  
  <rect x="980" y="120" width="160" height="50" rx="6" fill="#eff6ff" stroke="#3b82f6" stroke-width="1.5"/>
  <text x="1060" y="150" text-anchor="middle" font-size="13" fill="#1e40af">响应式布局</text>

  <rect x="260" y="185" width="1060" height="55" rx="6" fill="#f8fafc" stroke="#cbd5e1" stroke-width="1"/>
  <text x="790" y="218" text-anchor="middle" font-size="13" fill="#475569">页面：仪表盘 | 商品 | 订单 | 广告 | 客服 | 客户 | 竞品 | 内容 | 活动 | 报表 | 规则 | 预警 | 任务 | 财务 | 订阅 | 设置</text>

  <!-- Arrow -->
  <line x1="700" y1="260" x2="700" y2="290" stroke="#94a3b8" stroke-width="2" marker-end="url(#arrowhead)"/>

  <!-- Layer 2: 视图控制层 (y=290, h=160, center=370) -->
  <rect x="50" y="290" width="1300" height="160" rx="10" fill="white" filter="url(#shadow)"/>
  <rect x="50" y="290" width="180" height="160" rx="10" fill="url(#layerGrad2)"/>
  <text x="140" y="362" text-anchor="middle" font-size="16" font-weight="600" fill="white">视图控制层</text>
  <text x="140" y="385" text-anchor="middle" font-size="12" fill="#d1fae5">Views / Blueprints</text>
  
  <rect x="260" y="310" width="120" height="45" rx="6" fill="#ecfdf5" stroke="#10b981" stroke-width="1.5"/>
  <text x="320" y="337" text-anchor="middle" font-size="12" fill="#065f46">dashboard_bp</text>
  
  <rect x="395" y="310" width="120" height="45" rx="6" fill="#ecfdf5" stroke="#10b981" stroke-width="1.5"/>
  <text x="455" y="337" text-anchor="middle" font-size="12" fill="#065f46">product_bp</text>
  
  <rect x="530" y="310" width="120" height="45" rx="6" fill="#ecfdf5" stroke="#10b981" stroke-width="1.5"/>
  <text x="590" y="337" text-anchor="middle" font-size="12" fill="#065f46">order_bp</text>
  
  <rect x="665" y="310" width="120" height="45" rx="6" fill="#ecfdf5" stroke="#10b981" stroke-width="1.5"/>
  <text x="725" y="337" text-anchor="middle" font-size="12" fill="#065f46">ad_bp</text>
  
  <rect x="800" y="310" width="120" height="45" rx="6" fill="#ecfdf5" stroke="#10b981" stroke-width="1.5"/>
  <text x="860" y="337" text-anchor="middle" font-size="12" fill="#065f46">cs_bp</text>
  
  <rect x="935" y="310" width="120" height="45" rx="6" fill="#ecfdf5" stroke="#10b981" stroke-width="1.5"/>
  <text x="995" y="337" text-anchor="middle" font-size="12" fill="#065f46">customer_bp</text>
  
  <rect x="1070" y="310" width="120" height="45" rx="6" fill="#ecfdf5" stroke="#10b981" stroke-width="1.5"/>
  <text x="1130" y="337" text-anchor="middle" font-size="12" fill="#065f46">billing_bp</text>
  
  <rect x="1205" y="310" width="120" height="45" rx="6" fill="#ecfdf5" stroke="#10b981" stroke-width="1.5"/>
  <text x="1265" y="337" text-anchor="middle" font-size="12" fill="#065f46">admin_bp</text>

  <rect x="260" y="370" width="120" height="45" rx="6" fill="#ecfdf5" stroke="#10b981" stroke-width="1.5"/>
  <text x="320" y="397" text-anchor="middle" font-size="12" fill="#065f46">content_bp</text>
  
  <rect x="395" y="370" width="120" height="45" rx="6" fill="#ecfdf5" stroke="#10b981" stroke-width="1.5"/>
  <text x="455" y="397" text-anchor="middle" font-size="12" fill="#065f46">activity_bp</text>
  
  <rect x="530" y="370" width="120" height="45" rx="6" fill="#ecfdf5" stroke="#10b981" stroke-width="1.5"/>
  <text x="590" y="397" text-anchor="middle" font-size="12" fill="#065f46">rule_bp</text>
  
  <rect x="665" y="370" width="120" height="45" rx="6" fill="#ecfdf5" stroke="#10b981" stroke-width="1.5"/>
  <text x="725" y="397" text-anchor="middle" font-size="12" fill="#065f46">report_bp</text>
  
  <rect x="800" y="370" width="120" height="45" rx="6" fill="#ecfdf5" stroke="#10b981" stroke-width="1.5"/>
  <text x="860" y="397" text-anchor="middle" font-size="12" fill="#065f46">finance_bp</text>
  
  <rect x="935" y="370" width="120" height="45" rx="6" fill="#ecfdf5" stroke="#10b981" stroke-width="1.5"/>
  <text x="995" y="397" text-anchor="middle" font-size="12" fill="#065f46">task_bp</text>
  
  <rect x="1070" y="370" width="120" height="45" rx="6" fill="#ecfdf5" stroke="#10b981" stroke-width="1.5"/>
  <text x="1130" y="397" text-anchor="middle" font-size="12" fill="#065f46">auth_bp</text>
  
  <rect x="1205" y="370" width="120" height="45" rx="6" fill="#ecfdf5" stroke="#10b981" stroke-width="1.5"/>
  <text x="1265" y="397" text-anchor="middle" font-size="12" fill="#065f46">oauth_bp</text>

  <rect x="260" y="430" width="1065" height="10" rx="5" fill="#f8fafc"/>
  <text x="792" y="445" text-anchor="middle" font-size="11" fill="#64748b">RESTful 路由 + 请求校验 + 响应格式化 + JWT 权限校验 + 租户上下文注入</text>

  <!-- Arrow -->
  <line x1="700" y1="450" x2="700" y2="480" stroke="#94a3b8" stroke-width="2" marker-end="url(#arrowhead)"/>

  <!-- Layer 3: 服务层 (y=480, h=210, center=585) -->
  <rect x="50" y="480" width="1300" height="210" rx="10" fill="white" filter="url(#shadow)"/>
  <rect x="50" y="480" width="180" height="210" rx="10" fill="url(#layerGrad3)"/>
  <text x="140" y="577" text-anchor="middle" font-size="16" font-weight="600" fill="white">服务层</text>
  <text x="140" y="600" text-anchor="middle" font-size="12" fill="#ede9fe">Services</text>
  
  <rect x="260" y="500" width="150" height="45" rx="6" fill="#f5f3ff" stroke="#8b5cf6" stroke-width="1.5"/>
  <text x="335" y="527" text-anchor="middle" font-size="12" fill="#5b21b6">ProductService</text>
  
  <rect x="425" y="500" width="150" height="45" rx="6" fill="#f5f3ff" stroke="#8b5cf6" stroke-width="1.5"/>
  <text x="500" y="527" text-anchor="middle" font-size="12" fill="#5b21b6">OrderService</text>
  
  <rect x="590" y="500" width="150" height="45" rx="6" fill="#f5f3ff" stroke="#8b5cf6" stroke-width="1.5"/>
  <text x="665" y="527" text-anchor="middle" font-size="12" fill="#5b21b6">AdService</text>
  
  <rect x="755" y="500" width="150" height="45" rx="6" fill="#f5f3ff" stroke="#8b5cf6" stroke-width="1.5"/>
  <text x="830" y="527" text-anchor="middle" font-size="12" fill="#5b21b6">CSService</text>
  
  <rect x="920" y="500" width="150" height="45" rx="6" fill="#f5f3ff" stroke="#8b5cf6" stroke-width="1.5"/>
  <text x="995" y="527" text-anchor="middle" font-size="12" fill="#5b21b6">AIService</text>
  
  <rect x="1085" y="500" width="150" height="45" rx="6" fill="#f5f3ff" stroke="#8b5cf6" stroke-width="1.5"/>
  <text x="1160" y="527" text-anchor="middle" font-size="12" fill="#5b21b6">BillingService</text>
  
  <rect x="1250" y="500" width="80" height="45" rx="6" fill="#f5f3ff" stroke="#8b5cf6" stroke-width="1.5"/>
  <text x="1290" y="527" text-anchor="middle" font-size="12" fill="#5b21b6">RuleEngine</text>

  <rect x="260" y="560" width="150" height="45" rx="6" fill="#f5f3ff" stroke="#8b5cf6" stroke-width="1.5"/>
  <text x="335" y="587" text-anchor="middle" font-size="12" fill="#5b21b6">CustomerService</text>
  
  <rect x="425" y="560" width="150" height="45" rx="6" fill="#f5f3ff" stroke="#8b5cf6" stroke-width="1.5"/>
  <text x="500" y="587" text-anchor="middle" font-size="12" fill="#5b21b6">ContentService</text>
  
  <rect x="590" y="560" width="150" height="45" rx="6" fill="#f5f3ff" stroke="#8b5cf6" stroke-width="1.5"/>
  <text x="665" y="587" text-anchor="middle" font-size="12" fill="#5b21b6">ReportService</text>
  
  <rect x="755" y="560" width="150" height="45" rx="6" fill="#f5f3ff" stroke="#8b5cf6" stroke-width="1.5"/>
  <text x="830" y="587" text-anchor="middle" font-size="12" fill="#5b21b6">AlertService</text>
  
  <rect x="920" y="560" width="150" height="45" rx="6" fill="#f5f3ff" stroke="#8b5cf6" stroke-width="1.5"/>
  <text x="995" y="587" text-anchor="middle" font-size="12" fill="#5b21b6">FinanceService</text>
  
  <rect x="1085" y="560" width="150" height="45" rx="6" fill="#f5f3ff" stroke="#8b5cf6" stroke-width="1.5"/>
  <text x="1160" y="587" text-anchor="middle" font-size="12" fill="#5b21b6">ComplianceService</text>
  
  <rect x="1250" y="560" width="80" height="45" rx="6" fill="#f5f3ff" stroke="#8b5cf6" stroke-width="1.5"/>
  <text x="1290" y="587" text-anchor="middle" font-size="12" fill="#5b21b6">OAuthService</text>

  <rect x="260" y="620" width="1070" height="25" rx="6" fill="#faf5ff" stroke="#c4b5fd" stroke-width="1"/>
  <text x="795" y="637" text-anchor="middle" font-size="11" fill="#7c3aed">核心业务逻辑 · 事务控制 · 多模型组合 · 规则编排 · AI 流水线</text>
  
  <rect x="260" y="650" width="1070" height="25" rx="6" fill="#faf5ff" stroke="#c4b5fd" stroke-width="1"/>
  <text x="795" y="667" text-anchor="middle" font-size="11" fill="#7c3aed">被 Views（蓝图路由）和 Celery Task 共同调用，不直接处理 HTTP 请求</text>

  <!-- Arrow -->
  <line x1="700" y1="690" x2="700" y2="720" stroke="#94a3b8" stroke-width="2" marker-end="url(#arrowhead)"/>

  <!-- Layer 4: 模型层 (y=720, h=160, center=800) -->
  <rect x="50" y="720" width="1300" height="160" rx="10" fill="white" filter="url(#shadow)"/>
  <rect x="50" y="720" width="180" height="160" rx="10" fill="url(#layerGrad4)"/>
  <text x="140" y="792" text-anchor="middle" font-size="16" font-weight="600" fill="white">模型层</text>
  <text x="140" y="815" text-anchor="middle" font-size="12" fill="#fef3c7">Models (ORM)</text>
  
  <rect x="260" y="740" width="100" height="40" rx="6" fill="#fffbeb" stroke="#f59e0b" stroke-width="1.5"/>
  <text x="310" y="765" text-anchor="middle" font-size="12" fill="#92400e">Tenant</text>
  
  <rect x="375" y="740" width="100" height="40" rx="6" fill="#fffbeb" stroke="#f59e0b" stroke-width="1.5"/>
  <text x="425" y="765" text-anchor="middle" font-size="12" fill="#92400e">Plan</text>
  
  <rect x="490" y="740" width="130" height="40" rx="6" fill="#fffbeb" stroke="#f59e0b" stroke-width="1.5"/>
  <text x="555" y="765" text-anchor="middle" font-size="12" fill="#92400e">Subscription</text>
  
  <rect x="635" y="740" width="100" height="40" rx="6" fill="#fffbeb" stroke="#f59e0b" stroke-width="1.5"/>
  <text x="685" y="765" text-anchor="middle" font-size="12" fill="#92400e">Store</text>
  
  <rect x="750" y="740" width="100" height="40" rx="6" fill="#fffbeb" stroke="#f59e0b" stroke-width="1.5"/>
  <text x="800" y="765" text-anchor="middle" font-size="12" fill="#92400e">Product</text>
  
  <rect x="865" y="740" width="100" height="40" rx="6" fill="#fffbeb" stroke="#f59e0b" stroke-width="1.5"/>
  <text x="915" y="765" text-anchor="middle" font-size="12" fill="#92400e">Order</text>
  
  <rect x="980" y="740" width="120" height="40" rx="6" fill="#fffbeb" stroke="#f59e0b" stroke-width="1.5"/>
  <text x="1040" y="765" text-anchor="middle" font-size="12" fill="#92400e">Customer</text>
  
  <rect x="1115" y="740" width="120" height="40" rx="6" fill="#fffbeb" stroke="#f59e0b" stroke-width="1.5"/>
  <text x="1175" y="765" text-anchor="middle" font-size="12" fill="#92400e">AdCampaign</text>
  
  <rect x="1250" y="740" width="80" height="40" rx="6" fill="#fffbeb" stroke="#f59e0b" stroke-width="1.5"/>
  <text x="1290" y="765" text-anchor="middle" font-size="12" fill="#92400e">Rule</text>

  <rect x="260" y="795" width="120" height="40" rx="6" fill="#fffbeb" stroke="#f59e0b" stroke-width="1.5"/>
  <text x="320" y="820" text-anchor="middle" font-size="12" fill="#92400e">CSConversation</text>
  
  <rect x="395" y="795" width="100" height="40" rx="6" fill="#fffbeb" stroke="#f59e0b" stroke-width="1.5"/>
  <text x="445" y="820" text-anchor="middle" font-size="12" fill="#92400e">CSMessage</text>
  
  <rect x="510" y="795" width="140" height="40" rx="6" fill="#fffbeb" stroke="#f59e0b" stroke-width="1.5"/>
  <text x="580" y="820" text-anchor="middle" font-size="12" fill="#92400e">CSKnowledgeBase</text>
  
  <rect x="665" y="795" width="120" height="40" rx="6" fill="#fffbeb" stroke="#f59e0b" stroke-width="1.5"/>
  <text x="725" y="820" text-anchor="middle" font-size="12" fill="#92400e">CSDocument</text>
  
  <rect x="800" y="795" width="100" height="40" rx="6" fill="#fffbeb" stroke="#f59e0b" stroke-width="1.5"/>
  <text x="850" y="820" text-anchor="middle" font-size="12" fill="#92400e">AITask</text>
  
  <rect x="915" y="795" width="100" height="40" rx="6" fill="#fffbeb" stroke="#f59e0b" stroke-width="1.5"/>
  <text x="965" y="820" text-anchor="middle" font-size="12" fill="#92400e">Alert</text>
  
  <rect x="1030" y="795" width="100" height="40" rx="6" fill="#fffbeb" stroke="#f59e0b" stroke-width="1.5"/>
  <text x="1080" y="820" text-anchor="middle" font-size="12" fill="#92400e">Report</text>
  
  <rect x="1145" y="795" width="100" height="40" rx="6" fill="#fffbeb" stroke="#f59e0b" stroke-width="1.5"/>
  <text x="1195" y="820" text-anchor="middle" font-size="12" fill="#92400e">Finance</text>
  
  <rect x="1260" y="795" width="70" height="40" rx="6" fill="#fffbeb" stroke="#f59e0b" stroke-width="1.5"/>
  <text x="1295" y="820" text-anchor="middle" font-size="12" fill="#92400e">Content</text>

  <rect x="260" y="850" width="1070" height="15" rx="7" fill="#fef3c7"/>
  <text x="795" y="862" text-anchor="middle" font-size="11" fill="#b45309">SQLAlchemy ORM · 基础 CRUD · tenant_id 自动注入 · 多租户数据隔离</text>

  <!-- Arrow -->
  <line x1="700" y1="880" x2="700" y2="910" stroke="#94a3b8" stroke-width="2" marker-end="url(#arrowhead)"/>

  <!-- Layer 5: 基础设施层 (y=910, h=180, center=1000) -->
  <rect x="50" y="910" width="1300" height="180" rx="10" fill="white" filter="url(#shadow)"/>
  <rect x="50" y="910" width="180" height="180" rx="10" fill="url(#layerGrad5)"/>
  <text x="140" y="992" text-anchor="middle" font-size="16" font-weight="600" fill="white">基础设施层</text>
  <text x="140" y="1015" text-anchor="middle" font-size="12" fill="#e2e8f0">Infrastructure</text>
  
  <rect x="260" y="930" width="140" height="55" rx="6" fill="#f1f5f9" stroke="#64748b" stroke-width="1.5"/>
  <text x="330" y="955" text-anchor="middle" font-size="13" font-weight="600" fill="#334155">PostgreSQL 15</text>
  <text x="330" y="975" text-anchor="middle" font-size="11" fill="#64748b">+ pgvector 扩展</text>
  
  <rect x="420" y="930" width="120" height="55" rx="6" fill="#f1f5f9" stroke="#64748b" stroke-width="1.5"/>
  <text x="480" y="955" text-anchor="middle" font-size="13" font-weight="600" fill="#334155">Redis 7</text>
  <text x="480" y="975" text-anchor="middle" font-size="11" fill="#64748b">缓存/会话/队列</text>
  
  <rect x="560" y="930" width="140" height="55" rx="6" fill="#f1f5f9" stroke="#64748b" stroke-width="1.5"/>
  <text x="630" y="955" text-anchor="middle" font-size="13" font-weight="600" fill="#334155">Celery + Beat</text>
  <text x="630" y="975" text-anchor="middle" font-size="11" fill="#64748b">任务队列/调度</text>
  
  <rect x="720" y="930" width="140" height="55" rx="6" fill="#f1f5f9" stroke="#64748b" stroke-width="1.5"/>
  <text x="790" y="955" text-anchor="middle" font-size="13" font-weight="600" fill="#334155">OpenAI/LLM</text>
  <text x="790" y="975" text-anchor="middle" font-size="11" fill="#64748b">GPT-4o/千问</text>
  
  <rect x="880" y="930" width="140" height="55" rx="6" fill="#f1f5f9" stroke="#64748b" stroke-width="1.5"/>
  <text x="950" y="955" text-anchor="middle" font-size="13" font-weight="600" fill="#334155">SD/DALL·E 3</text>
  <text x="950" y="975" text-anchor="middle" font-size="11" fill="#64748b">图片/视频生成</text>
  
  <rect x="1040" y="930" width="140" height="55" rx="6" fill="#f1f5f9" stroke="#64748b" stroke-width="1.5"/>
  <text x="1110" y="955" text-anchor="middle" font-size="13" font-weight="600" fill="#334155">S3/MinIO</text>
  <text x="1110" y="975" text-anchor="middle" font-size="11" fill="#64748b">文件/备份存储</text>
  
  <rect x="1200" y="930" width="130" height="55" rx="6" fill="#f1f5f9" stroke="#64748b" stroke-width="1.5"/>
  <text x="1265" y="955" text-anchor="middle" font-size="13" font-weight="600" fill="#334155">Embedding</text>
  <text x="1265" y="975" text-anchor="middle" font-size="11" fill="#64748b">text-embedding-3</text>

  <!-- Platform APIs -->
  <rect x="260" y="1005" width="160" height="45" rx="6" fill="#e2e8f0" stroke="#475569" stroke-width="1.5"/>
  <text x="340" y="1032" text-anchor="middle" font-size="12" fill="#1e293b">淘宝开放平台 API</text>
  
  <rect x="440" y="1005" width="160" height="45" rx="6" fill="#e2e8f0" stroke="#475569" stroke-width="1.5"/>
  <text x="520" y="1032" text-anchor="middle" font-size="12" fill="#1e293b">拼多多开放平台 API</text>
  
  <rect x="620" y="1005" width="160" height="45" rx="6" fill="#e2e8f0" stroke="#475569" stroke-width="1.5"/>
  <text x="700" y="1032" text-anchor="middle" font-size="12" fill="#1e293b">抖音开放平台 API</text>
  
  <rect x="800" y="1005" width="160" height="45" rx="6" fill="#e2e8f0" stroke="#475569" stroke-width="1.5"/>
  <text x="880" y="1032" text-anchor="middle" font-size="12" fill="#1e293b">京东 JOS 开放平台 API</text>
  
  <rect x="980" y="1005" width="160" height="45" rx="6" fill="#e2e8f0" stroke="#475569" stroke-width="1.5"/>
  <text x="1060" y="1032" text-anchor="middle" font-size="12" fill="#1e293b">平台客服 API 接入</text>
  
  <rect x="1160" y="1005" width="160" height="45" rx="6" fill="#e2e8f0" stroke="#475569" stroke-width="1.5"/>
  <text x="1240" y="1032" text-anchor="middle" font-size="12" fill="#1e293b">Gunicorn + Nginx</text>

  <!-- Footer -->
  <text x="700" y="1085" text-anchor="middle" font-size="12" fill="#94a3b8">© 2026 AllMall Operation Suite · 系统架构图 · CONFIDENTIAL</text>
</svg>
